<svg width="64" height="64" viewBox="0 0 64 64" fill="none" xmlns="http://www.w3.org/2000/svg">
<path d="M32 64C49.6731 64 64 49.6731 64 32C64 14.3269 49.6731 0 32 0C14.3269 0 0 14.3269 0 32C0 49.6731 14.3269 64 32 64Z" fill="url(#paint0_linear)"/>
<path d="M41.5984 48.3C37.6984 45 31.9984 45 31.9984 45C31.9984 45 26.2984 45 22.3984 48.3" stroke="#212240" stroke-width="3" stroke-miterlimit="10" stroke-linecap="square" stroke-linejoin="round"/>
<path d="M38.5 26.4999L46.8 23.8999" stroke="#212240" stroke-width="3" stroke-miterlimit="10" stroke-linecap="square" stroke-linejoin="round"/>
<path d="M16.3 32.3999C17.3 33.6999 18.9 34.2999 20.6 34.2999C22.2 34.2999 23.9 33.6999 24.9 32.3999" stroke="#212240" stroke-width="3" stroke-miterlimit="10" stroke-linecap="square" stroke-linejoin="round"/>
<path d="M39.2 32.3999C40.2 33.6999 41.8 34.2999 43.5 34.2999C45.1 34.2999 46.8 33.6999 47.8 32.3999" stroke="#212240" stroke-width="3" stroke-miterlimit="10" stroke-linecap="square" stroke-linejoin="round"/>
<path d="M25.5 26.4999L17.2 23.8999" stroke="#212240" stroke-width="3" stroke-miterlimit="10" stroke-linecap="square" stroke-linejoin="round"/>
<defs>
<linearGradient id="paint0_linear" x1="32" y1="52" x2="46.5" y2="-93.5" gradientUnits="userSpaceOnUse">
<stop stop-color="#FFD748"/>
<stop offset="0.9999" stop-color="#ED0143"/>
</linearGradient>
</defs>
</svg>
